<svg width="176" height="176" viewBox="0 0 176 176" fill="none" xmlns="http://www.w3.org/2000/svg">
<g clip-path="url(#clip0_67_294)">
<path d="M78.6553 156.265C78.6553 156.265 82.6889 122.039 51.4846 106.504C20.2803 90.9689 0.00872701 106.798 0.00872701 106.798C0.00872701 106.798 -1.15933 138.422 23.2523 151.826C47.0729 164.904 78.6553 156.265 78.6553 156.265Z" fill="#14C18B"/>
<g opacity="0.25">
<path d="M78.7646 156.265C78.7646 156.265 82.7982 122.039 51.5939 106.504C20.3896 90.9689 0.117981 106.798 0.117981 106.798" fill="black"/>
</g>
<path d="M97.3443 156.266C97.3443 156.266 93.3107 122.039 124.515 106.504C155.719 90.9691 175.991 106.801 175.991 106.801C175.991 106.801 177.159 138.425 152.747 151.829C128.927 164.904 97.3443 156.266 97.3443 156.266Z" fill="#14C18B"/>
<g opacity="0.25">
<path d="M97.3443 156.266C97.3443 156.266 93.3107 122.039 124.515 106.504C155.719 90.9691 175.991 106.801 175.991 106.801" fill="black"/>
</g>
<path d="M98.1874 90.4619V173.389H77.8122V90.4619" fill="#14C18B"/>
<g opacity="0.25">
<path d="M87.9298 90.4619V173.389H77.8122V90.4619" fill="black"/>
</g>
<path d="M87.9998 92.9857C126.423 92.9857 157.571 72.7571 157.571 47.8039C157.571 22.8507 126.423 2.62207 87.9998 2.62207C49.5768 2.62207 18.4288 22.8507 18.4288 47.8039C18.4288 72.7571 49.5768 92.9857 87.9998 92.9857Z" fill="#FF3D2E"/>
<g opacity="0.15">
<path d="M87.9998 92.9828C49.5771 92.9828 18.4288 72.7533 18.4288 47.7982C18.4288 22.8432 49.5771 2.61084 87.9998 2.61084" fill="black"/>
</g>
<path d="M87.9998 71.5659C66.9859 71.5659 49.8908 60.902 49.8908 47.7985C49.8908 34.6893 66.9887 24.0283 87.9998 24.0283C109.011 24.0283 126.106 34.6921 126.106 47.7985C126.109 60.902 109.014 71.5659 87.9998 71.5659Z" fill="white"/>
<path d="M87.9998 26.8293C107.14 26.8293 123.308 36.4314 123.308 47.7983C123.308 59.1652 107.14 68.7646 87.9998 68.7646C68.8599 68.7646 52.6919 59.1624 52.6919 47.7955C52.6919 36.4286 68.8599 26.8293 87.9998 26.8293ZM87.9998 21.2271C65.4061 21.2271 47.0897 33.1233 47.0897 47.7983C47.0897 62.4733 65.4061 74.3668 87.9998 74.3668C110.594 74.3668 128.91 62.4705 128.91 47.7955C128.91 33.1205 110.594 21.2271 87.9998 21.2271Z" fill="#EAEAEA"/>
<path d="M99.1454 32.958C96.42 32.958 94.2099 38.423 94.2099 45.1652C94.2099 51.9075 96.42 57.3724 99.1454 57.3724C101.871 57.3724 104.081 51.9075 104.081 45.1652C104.078 38.423 101.871 32.958 99.1454 32.958Z" fill="#1A1718"/>
<path d="M76.8571 32.958C74.1316 32.958 71.9215 38.423 71.9215 45.1652C71.9215 51.9075 74.1316 57.3724 76.8571 57.3724C79.5825 57.3724 81.7926 51.9075 81.7926 45.1652C81.7898 38.423 79.5825 32.958 76.8571 32.958Z" fill="#1A1718"/>
</g>
<defs>
<clipPath id="clip0_67_294">
<rect width="176" height="176" fill="white"/>
</clipPath>
</defs>
</svg>
